<svg width="24" height="16" viewBox="0 0 24 16" fill="none" xmlns="http://www.w3.org/2000/svg">
<path d="M23.0355 15.9987H20.4077C19.4139 15.9987 19.1145 15.0954 17.333 13.095C15.7762 11.4112 15.1186 11.2019 14.7248 11.2019C14.1801 11.2019 14.0316 11.3699 14.0316 12.2111V14.8628C14.0316 15.58 13.8243 16 12.1546 16C10.5347 15.8779 8.96381 15.3256 7.57137 14.3888C6.17893 13.4519 5.00476 12.1572 4.14556 10.6113C2.10619 7.76139 0.686791 4.41732 0 0.844435C0 0.402483 0.149701 0.00188447 0.900508 0.00188447H3.52603C4.20083 0.00188447 4.44381 0.339163 4.70867 1.11839C5.98343 5.32856 8.15869 8.99081 9.04193 8.99081C9.38048 8.99081 9.52788 8.82282 9.52788 7.87559V3.53879C9.41618 1.56034 8.47997 1.39364 8.47997 0.677734C8.49182 0.488859 8.56881 0.312605 8.69459 0.18641C8.82038 0.060214 8.98505 -0.00598123 9.15363 0.00188447H13.2808C13.845 0.00188447 14.0316 0.317195 14.0316 1.07446V6.92837C14.0316 7.56028 14.2734 7.76963 14.4438 7.76963C14.7824 7.76963 15.0426 7.56028 15.6633 6.86505C16.9932 5.04382 18.0801 3.01531 18.8899 0.843142C18.9724 0.58206 19.129 0.358536 19.3355 0.206822C19.542 0.0551074 19.7872 -0.0164283 20.0334 0.00317664H22.6601C23.4478 0.00317664 23.6147 0.445128 23.4478 1.07575C22.4921 3.47714 21.31 5.75676 19.9217 7.87559C19.6384 8.36019 19.5256 8.61218 19.9217 9.18077C20.182 9.62272 21.1032 10.4859 21.7216 11.3065C22.6221 12.3145 23.3694 13.4801 23.9349 14.7569C24.1606 15.5787 23.7852 15.9987 23.0355 15.9987Z" fill="#727272"/>
<path d="M23.0355 15.9987H20.4077C19.4139 15.9987 19.1145 15.0954 17.333 13.095C15.7762 11.4112 15.1186 11.2019 14.7248 11.2019C14.1801 11.2019 14.0316 11.3699 14.0316 12.2111V14.8628C14.0316 15.58 13.8243 16 12.1546 16C10.5347 15.8779 8.96381 15.3256 7.57137 14.3888C6.17893 13.4519 5.00476 12.1572 4.14556 10.6113C2.10619 7.76139 0.686791 4.41732 0 0.844435C0 0.402483 0.149701 0.00188447 0.900508 0.00188447H3.52603C4.20083 0.00188447 4.44381 0.339163 4.70867 1.11839C5.98343 5.32856 8.15869 8.99081 9.04193 8.99081C9.38048 8.99081 9.52788 8.82282 9.52788 7.87559V3.53879C9.41618 1.56034 8.47997 1.39364 8.47997 0.677734C8.49182 0.488859 8.56881 0.312605 8.69459 0.18641C8.82038 0.060214 8.98505 -0.00598123 9.15363 0.00188447H13.2808C13.845 0.00188447 14.0316 0.317195 14.0316 1.07446V6.92837C14.0316 7.56028 14.2734 7.76963 14.4438 7.76963C14.7824 7.76963 15.0426 7.56028 15.6633 6.86505C16.9932 5.04382 18.0801 3.01531 18.8899 0.843142C18.9724 0.58206 19.129 0.358536 19.3355 0.206822C19.542 0.0551074 19.7872 -0.0164283 20.0334 0.00317664H22.6601C23.4478 0.00317664 23.6147 0.445128 23.4478 1.07575C22.4921 3.47714 21.31 5.75676 19.9217 7.87559C19.6384 8.36019 19.5256 8.61218 19.9217 9.18077C20.182 9.62272 21.1032 10.4859 21.7216 11.3065C22.6221 12.3145 23.3694 13.4801 23.9349 14.7569C24.1606 15.5787 23.7852 15.9987 23.0355 15.9987Z" fill="#727272"/>
</svg>
