<svg width="24" height="20" viewBox="0 0 24 20" fill="none" xmlns="http://www.w3.org/2000/svg">
<path fill-rule="evenodd" clip-rule="evenodd" d="M12 0.5C13.026 0.5 14.0784 0.526648 15.0984 0.570253L16.3032 0.628394L17.4564 0.697436L18.5364 0.771323L19.5228 0.848844C20.5934 0.931079 21.601 1.39202 22.3679 2.15047C23.1349 2.90893 23.6122 3.91625 23.7156 4.995L23.7636 5.50979L23.8536 6.61204C23.9376 7.75426 24 8.99945 24 10.1901C24 11.3808 23.9376 12.626 23.8536 13.7682L23.7636 14.8704L23.7156 15.3852C23.6121 16.4642 23.1347 17.4717 22.3675 18.2301C21.6003 18.9886 20.5924 19.4494 19.5216 19.5314L18.5376 19.6077L17.4576 19.6828L16.3032 19.7518L15.0984 19.81C14.0662 19.8551 13.0332 19.8785 12 19.8802C10.9668 19.8785 9.93381 19.8551 8.9016 19.81L7.6968 19.7518L6.5436 19.6828L5.4636 19.6077L4.4772 19.5314C3.40658 19.4492 2.39904 18.9882 1.63205 18.2298C0.865066 17.4713 0.387829 16.464 0.2844 15.3852L0.2364 14.8704L0.1464 13.7682C0.0549993 12.5777 0.00616757 11.3842 0 10.1901C0 8.99945 0.0624 7.75426 0.1464 6.61204L0.2364 5.50979L0.2844 4.995C0.387789 3.91644 0.864854 2.90927 1.6316 2.15084C2.39834 1.39241 3.40559 0.931351 4.476 0.848844L5.4612 0.771323L6.5412 0.697436L7.6956 0.628394L8.9004 0.570253C9.933 0.525106 10.9664 0.501683 12 0.5ZM9.6 7.2528V13.1274C9.6 13.687 10.2 14.0359 10.68 13.7573L15.72 10.82C15.8297 10.7563 15.9208 10.6645 15.9841 10.5539C16.0475 10.4433 16.0808 10.3179 16.0808 10.1901C16.0808 10.0624 16.0475 9.93691 15.9841 9.82633C15.9208 9.71576 15.8297 9.62398 15.72 9.56026L10.68 6.62415C10.5705 6.56035 10.4463 6.52677 10.3199 6.52679C10.1935 6.52681 10.0693 6.56043 9.9598 6.62427C9.85033 6.68811 9.75945 6.77992 9.69629 6.89047C9.63313 7.00102 9.59992 7.1264 9.6 7.25401V7.2528Z" fill="black"/>
<path fill-rule="evenodd" clip-rule="evenodd" d="M12 0.5C13.026 0.5 14.0784 0.526648 15.0984 0.570253L16.3032 0.628394L17.4564 0.697436L18.5364 0.771323L19.5228 0.848844C20.5934 0.931079 21.601 1.39202 22.3679 2.15047C23.1349 2.90893 23.6122 3.91625 23.7156 4.995L23.7636 5.50979L23.8536 6.61204C23.9376 7.75426 24 8.99945 24 10.1901C24 11.3808 23.9376 12.626 23.8536 13.7682L23.7636 14.8704L23.7156 15.3852C23.6121 16.4642 23.1347 17.4717 22.3675 18.2301C21.6003 18.9886 20.5924 19.4494 19.5216 19.5314L18.5376 19.6077L17.4576 19.6828L16.3032 19.7518L15.0984 19.81C14.0662 19.8551 13.0332 19.8785 12 19.8802C10.9668 19.8785 9.93381 19.8551 8.9016 19.81L7.6968 19.7518L6.5436 19.6828L5.4636 19.6077L4.4772 19.5314C3.40658 19.4492 2.39904 18.9882 1.63205 18.2298C0.865066 17.4713 0.387829 16.464 0.2844 15.3852L0.2364 14.8704L0.1464 13.7682C0.0549993 12.5777 0.00616757 11.3842 0 10.1901C0 8.99945 0.0624 7.75426 0.1464 6.61204L0.2364 5.50979L0.2844 4.995C0.387789 3.91644 0.864854 2.90927 1.6316 2.15084C2.39834 1.39241 3.40559 0.931351 4.476 0.848844L5.4612 0.771323L6.5412 0.697436L7.6956 0.628394L8.9004 0.570253C9.933 0.525106 10.9664 0.501683 12 0.5ZM9.6 7.2528V13.1274C9.6 13.687 10.2 14.0359 10.68 13.7573L15.72 10.82C15.8297 10.7563 15.9208 10.6645 15.9841 10.5539C16.0475 10.4433 16.0808 10.3179 16.0808 10.1901C16.0808 10.0624 16.0475 9.93691 15.9841 9.82633C15.9208 9.71576 15.8297 9.62398 15.72 9.56026L10.68 6.62415C10.5705 6.56035 10.4463 6.52677 10.3199 6.52679C10.1935 6.52681 10.0693 6.56043 9.9598 6.62427C9.85033 6.68811 9.75945 6.77992 9.69629 6.89047C9.63313 7.00102 9.59992 7.1264 9.6 7.25401V7.2528Z" fill="#727272"/>
</svg>
